<svg width="22" height="22" viewBox="0 0 22 22" fill="none" xmlns="http://www.w3.org/2000/svg">
<path d="M7.66667 20.6237H5.44444C2.98984 20.6237 1 18.6338 1 16.1792V9.18769C1 7.63354 1.81179 6.1923 3.14088 5.38679L8.69643 2.01979C10.1123 1.1617 11.8877 1.1617 13.3036 2.01979L18.8591 5.38679C20.1882 6.1923 21 7.63354 21 9.18769V16.1792C21 18.6338 19.0101 20.6237 16.5556 20.6237H14.3333M7.66667 20.6237V16.1792C7.66667 14.3382 9.159 12.8459 11 12.8459C12.841 12.8459 14.3333 14.3382 14.3333 16.1792V20.6237M7.66667 20.6237H14.3333" stroke="#898989" stroke-width="2" stroke-linecap="round" stroke-linejoin="round"/>
</svg>
