<svg width="22" height="22" viewBox="0 0 22 22" fill="none" xmlns="http://www.w3.org/2000/svg">
<path d="M19.0153 14.4105L18.2904 13.9666L19.0153 14.4105ZM18.1402 15.8395L18.8651 16.2833V16.2833L18.1402 15.8395ZM2.98475 7.58946L2.25986 7.14558H2.25986L2.98475 7.58946ZM3.85975 6.16052L4.58464 6.60441L3.85975 6.16052ZM6.25031 5.55658L6.6567 4.81003L6.6567 4.81003L6.25031 5.55658ZM3.6253 9.84341L3.2189 10.59H3.2189L3.6253 9.84341ZM15.7497 16.4434L15.3433 17.19H15.3433L15.7497 16.4434ZM18.3747 12.1566L17.9683 12.9031L18.3747 12.1566ZM3.85975 15.8395L3.13486 16.2834L3.13486 16.2834L3.85975 15.8395ZM2.98475 14.4105L3.70964 13.9667H3.70964L2.98475 14.4105ZM18.1402 6.16054L18.8651 5.71665V5.71665L18.1402 6.16054ZM19.0153 7.58948L18.2904 8.03336V8.03336L19.0153 7.58948ZM18.3747 9.84342L18.7811 10.59L18.3747 9.84342ZM15.7497 5.55659L16.1561 6.30315L15.7497 5.55659ZM3.6253 12.1566L4.03169 12.9031H4.03169L3.6253 12.1566ZM6.25031 16.4434L5.84392 15.6969L5.84391 15.6969L6.25031 16.4434ZM15.6567 5.60723L15.2503 4.86067L15.6567 5.60723ZM6.34333 5.60722L5.93694 6.35378L5.93694 6.35378L6.34333 5.60722ZM15.6567 16.3928L16.0631 15.6462L16.0631 15.6462L15.6567 16.3928ZM6.34333 16.3928L6.74972 17.1393L6.74973 17.1393L6.34333 16.3928ZM10.125 3.6H11.875V1.9H10.125V3.6ZM11.875 18.4H10.125V20.1H11.875V18.4ZM10.125 18.4C9.58012 18.4 9.22499 17.9954 9.22499 17.6H7.52499C7.52499 19.0271 8.73687 20.1 10.125 20.1V18.4ZM12.775 17.6C12.775 17.9954 12.4199 18.4 11.875 18.4V20.1C13.2631 20.1 14.475 19.0271 14.475 17.6H12.775ZM11.875 3.6C12.4199 3.6 12.775 4.0046 12.775 4.4H14.475C14.475 2.97286 13.2631 1.9 11.875 1.9V3.6ZM10.125 1.9C8.73687 1.9 7.52499 2.97286 7.52499 4.4H9.22499C9.22499 4.0046 9.58012 3.6 10.125 3.6V1.9ZM18.2904 13.9666L17.4154 15.3956L18.8651 16.2833L19.7401 14.8544L18.2904 13.9666ZM3.70964 8.03335L4.58464 6.60441L3.13486 5.71664L2.25986 7.14558L3.70964 8.03335ZM4.58464 6.60441C4.82021 6.21971 5.38512 6.05339 5.84391 6.30314L6.6567 4.81003C5.44147 4.14851 3.86579 4.52297 3.13486 5.71664L4.58464 6.60441ZM4.03169 9.09685C3.59941 8.86154 3.49361 8.38615 3.70964 8.03335L2.25986 7.14558C1.50939 8.37115 1.97715 9.91401 3.2189 10.59L4.03169 9.09685ZM17.4154 15.3956C17.1798 15.7803 16.6149 15.9466 16.1561 15.6969L15.3433 17.19C16.5585 17.8515 18.1342 17.477 18.8651 16.2833L17.4154 15.3956ZM19.7401 14.8544C20.4906 13.6288 20.0228 12.086 18.7811 11.41L17.9683 12.9031C18.4006 13.1385 18.5064 13.6138 18.2904 13.9666L19.7401 14.8544ZM4.58464 15.3956L3.70964 13.9667L2.25986 14.8544L3.13486 16.2834L4.58464 15.3956ZM17.4154 6.60442L18.2904 8.03336L19.7401 7.14559L18.8651 5.71665L17.4154 6.60442ZM18.2904 8.03336C18.5064 8.38616 18.4006 8.86155 17.9683 9.09686L18.7811 10.59C20.0228 9.91402 20.4906 8.37116 19.7401 7.14559L18.2904 8.03336ZM16.1561 6.30315C16.6149 6.0534 17.1798 6.21972 17.4154 6.60442L18.8651 5.71665C18.1342 4.52299 16.5585 4.14852 15.3433 4.81004L16.1561 6.30315ZM3.70964 13.9667C3.49361 13.6139 3.59941 13.1385 4.03169 12.9031L3.2189 11.41C1.97715 12.086 1.50939 13.6289 2.25986 14.8544L3.70964 13.9667ZM3.13486 16.2834C3.86579 17.477 5.44147 17.8515 6.6567 17.19L5.84391 15.6969C5.38511 15.9466 4.82021 15.7803 4.58464 15.3956L3.13486 16.2834ZM16.0631 6.35378L16.1561 6.30315L15.3433 4.81004L15.2503 4.86067L16.0631 6.35378ZM5.84391 6.30314L5.93694 6.35378L6.74973 4.86067L6.6567 4.81003L5.84391 6.30314ZM16.1561 15.6969L16.0631 15.6462L15.2503 17.1393L15.3433 17.19L16.1561 15.6969ZM5.93694 15.6462L5.84392 15.6969L6.65669 17.19L6.74972 17.1393L5.93694 15.6462ZM3.2189 10.59C3.54376 10.7668 3.54377 11.2332 3.2189 11.41L4.03169 12.9031C5.5395 12.0824 5.53951 9.91764 4.03169 9.09685L3.2189 10.59ZM6.74973 17.1393C7.09923 16.9491 7.52499 17.2021 7.52499 17.6H9.22499C9.22499 15.9123 7.41924 14.8393 5.93694 15.6462L6.74973 17.1393ZM14.475 17.6C14.475 17.2021 14.9008 16.9491 15.2503 17.1393L16.0631 15.6462C14.5808 14.8393 12.775 15.9123 12.775 17.6H14.475ZM18.7811 11.41C18.4562 11.2332 18.4562 10.7668 18.7811 10.59L17.9683 9.09686C16.4605 9.91765 16.4605 12.0824 17.9683 12.9031L18.7811 11.41ZM5.93694 6.35378C7.41924 7.16068 9.22499 6.08769 9.22499 4.4H7.52499C7.52499 4.79793 7.09923 5.05092 6.74973 4.86067L5.93694 6.35378ZM15.2503 4.86067C14.9008 5.05093 14.475 4.79794 14.475 4.4H12.775C12.775 6.0877 14.5808 7.16069 16.0631 6.35378L15.2503 4.86067ZM12.9 11C12.9 12.0493 12.0493 12.9 11 12.9V14.6C12.9882 14.6 14.6 12.9882 14.6 11H12.9ZM11 12.9C9.95067 12.9 9.10001 12.0493 9.10001 11H7.40001C7.40001 12.9882 9.01178 14.6 11 14.6V12.9ZM9.10001 11C9.10001 9.95066 9.95067 9.1 11 9.1V7.4C9.01178 7.4 7.40001 9.01178 7.40001 11H9.10001ZM11 9.1C12.0493 9.1 12.9 9.95066 12.9 11H14.6C14.6 9.01178 12.9882 7.4 11 7.4V9.1Z" fill="#898989"/>
</svg>
