<svg width="28" height="28" viewBox="0 0 28 28" fill="none" xmlns="http://www.w3.org/2000/svg">
<g filter="url(#filter0_d_1676_23667)">
<path d="M22.0153 17.4105L21.2904 16.9666L22.0153 17.4105ZM21.1402 18.8395L21.8651 19.2833V19.2833L21.1402 18.8395ZM5.98475 10.5895L5.25986 10.1456H5.25986L5.98475 10.5895ZM6.85975 9.16052L7.58464 9.60441L6.85975 9.16052ZM9.25031 8.55658L9.6567 7.81003L9.6567 7.81003L9.25031 8.55658ZM6.6253 12.8434L6.2189 13.59H6.2189L6.6253 12.8434ZM18.7497 19.4434L18.3433 20.19H18.3433L18.7497 19.4434ZM21.3747 15.1566L20.9683 15.9031L21.3747 15.1566ZM6.85975 18.8395L6.13486 19.2834L6.13486 19.2834L6.85975 18.8395ZM5.98475 17.4105L6.70964 16.9667H6.70964L5.98475 17.4105ZM21.1402 9.16054L21.8651 8.71665V8.71665L21.1402 9.16054ZM22.0153 10.5895L21.2904 11.0334V11.0334L22.0153 10.5895ZM21.3747 12.8434L21.7811 13.59L21.3747 12.8434ZM18.7497 8.55659L19.1561 9.30315L18.7497 8.55659ZM6.6253 15.1566L7.03169 15.9031H7.03169L6.6253 15.1566ZM9.25031 19.4434L8.84392 18.6969L8.84391 18.6969L9.25031 19.4434ZM18.6567 8.60723L18.2503 7.86067L18.6567 8.60723ZM9.34333 8.60722L8.93694 9.35378L8.93694 9.35378L9.34333 8.60722ZM18.6567 19.3928L19.0631 18.6462L19.0631 18.6462L18.6567 19.3928ZM9.34333 19.3928L9.74972 20.1393L9.74973 20.1393L9.34333 19.3928ZM13.125 6.6H14.875V4.9H13.125V6.6ZM14.875 21.4H13.125V23.1H14.875V21.4ZM13.125 21.4C12.5801 21.4 12.225 20.9954 12.225 20.6H10.525C10.525 22.0271 11.7369 23.1 13.125 23.1V21.4ZM15.775 20.6C15.775 20.9954 15.4199 21.4 14.875 21.4V23.1C16.2631 23.1 17.475 22.0271 17.475 20.6H15.775ZM14.875 6.6C15.4199 6.6 15.775 7.0046 15.775 7.4H17.475C17.475 5.97286 16.2631 4.9 14.875 4.9V6.6ZM13.125 4.9C11.7369 4.9 10.525 5.97286 10.525 7.4H12.225C12.225 7.0046 12.5801 6.6 13.125 6.6V4.9ZM21.2904 16.9666L20.4154 18.3956L21.8651 19.2833L22.7401 17.8544L21.2904 16.9666ZM6.70964 11.0333L7.58464 9.60441L6.13486 8.71664L5.25986 10.1456L6.70964 11.0333ZM7.58464 9.60441C7.82021 9.21971 8.38512 9.05339 8.84391 9.30314L9.6567 7.81003C8.44147 7.14851 6.86579 7.52297 6.13486 8.71664L7.58464 9.60441ZM7.03169 12.0969C6.59941 11.8615 6.49361 11.3861 6.70964 11.0333L5.25986 10.1456C4.50939 11.3711 4.97715 12.914 6.2189 13.59L7.03169 12.0969ZM20.4154 18.3956C20.1798 18.7803 19.6149 18.9466 19.1561 18.6969L18.3433 20.19C19.5585 20.8515 21.1342 20.477 21.8651 19.2833L20.4154 18.3956ZM22.7401 17.8544C23.4906 16.6288 23.0228 15.086 21.7811 14.41L20.9683 15.9031C21.4006 16.1385 21.5064 16.6138 21.2904 16.9666L22.7401 17.8544ZM7.58464 18.3956L6.70964 16.9667L5.25986 17.8544L6.13486 19.2834L7.58464 18.3956ZM20.4154 9.60442L21.2904 11.0334L22.7401 10.1456L21.8651 8.71665L20.4154 9.60442ZM21.2904 11.0334C21.5064 11.3862 21.4006 11.8615 20.9683 12.0969L21.7811 13.59C23.0228 12.914 23.4906 11.3712 22.7401 10.1456L21.2904 11.0334ZM19.1561 9.30315C19.6149 9.0534 20.1798 9.21972 20.4154 9.60442L21.8651 8.71665C21.1342 7.52299 19.5585 7.14852 18.3433 7.81004L19.1561 9.30315ZM6.70964 16.9667C6.49361 16.6139 6.59941 16.1385 7.03169 15.9031L6.2189 14.41C4.97715 15.086 4.50939 16.6289 5.25986 17.8544L6.70964 16.9667ZM6.13486 19.2834C6.86579 20.477 8.44147 20.8515 9.6567 20.19L8.84391 18.6969C8.38511 18.9466 7.82021 18.7803 7.58464 18.3956L6.13486 19.2834ZM19.0631 9.35378L19.1561 9.30315L18.3433 7.81004L18.2503 7.86067L19.0631 9.35378ZM8.84391 9.30314L8.93694 9.35378L9.74973 7.86067L9.6567 7.81003L8.84391 9.30314ZM19.1561 18.6969L19.0631 18.6462L18.2503 20.1393L18.3433 20.19L19.1561 18.6969ZM8.93694 18.6462L8.84392 18.6969L9.65669 20.19L9.74972 20.1393L8.93694 18.6462ZM6.2189 13.59C6.54376 13.7668 6.54377 14.2332 6.2189 14.41L7.03169 15.9031C8.5395 15.0824 8.53951 12.9176 7.03169 12.0969L6.2189 13.59ZM9.74973 20.1393C10.0992 19.9491 10.525 20.2021 10.525 20.6H12.225C12.225 18.9123 10.4192 17.8393 8.93694 18.6462L9.74973 20.1393ZM17.475 20.6C17.475 20.2021 17.9008 19.9491 18.2503 20.1393L19.0631 18.6462C17.5808 17.8393 15.775 18.9123 15.775 20.6H17.475ZM21.7811 14.41C21.4562 14.2332 21.4562 13.7668 21.7811 13.59L20.9683 12.0969C19.4605 12.9176 19.4605 15.0824 20.9683 15.9031L21.7811 14.41ZM8.93694 9.35378C10.4192 10.1607 12.225 9.08769 12.225 7.4H10.525C10.525 7.79793 10.0992 8.05092 9.74973 7.86067L8.93694 9.35378ZM18.2503 7.86067C17.9008 8.05093 17.475 7.79794 17.475 7.4H15.775C15.775 9.0877 17.5808 10.1607 19.0631 9.35378L18.2503 7.86067ZM15.9 14C15.9 15.0493 15.0493 15.9 14 15.9V17.6C15.9882 17.6 17.6 15.9882 17.6 14H15.9ZM14 15.9C12.9507 15.9 12.1 15.0493 12.1 14H10.4C10.4 15.9882 12.0118 17.6 14 17.6V15.9ZM12.1 14C12.1 12.9507 12.9507 12.1 14 12.1V10.4C12.0118 10.4 10.4 12.0118 10.4 14H12.1ZM14 12.1C15.0493 12.1 15.9 12.9507 15.9 14H17.6C17.6 12.0118 15.9882 10.4 14 10.4V12.1Z" fill="#00368A"/>
</g>
<defs>
<filter id="filter0_d_1676_23667" x="-1" y="-1" width="30" height="30" filterUnits="userSpaceOnUse" color-interpolation-filters="sRGB">
<feFlood flood-opacity="0" result="BackgroundImageFix"/>
<feColorMatrix in="SourceAlpha" type="matrix" values="0 0 0 0 0 0 0 0 0 0 0 0 0 0 0 0 0 0 127 0" result="hardAlpha"/>
<feOffset/>
<feGaussianBlur stdDeviation="2"/>
<feColorMatrix type="matrix" values="0 0 0 0 0 0 0 0 0 0.160784 0 0 0 0 0.407843 0 0 0 0.18 0"/>
<feBlend mode="normal" in2="BackgroundImageFix" result="effect1_dropShadow_1676_23667"/>
<feBlend mode="normal" in="SourceGraphic" in2="effect1_dropShadow_1676_23667" result="shape"/>
</filter>
</defs>
</svg>
