<svg width="24" height="24" viewBox="0 0 24 24" fill="none" xmlns="http://www.w3.org/2000/svg">
<path d="M9.99962 18.1765H5.44399C4.56613 18.1765 4.14035 17.1028 4.77961 16.5012C5.55817 15.7684 5.99962 14.7467 5.99962 13.6776V11C5.99962 7.6863 8.68591 5 11.9996 5M9.99962 18.1765V19C9.99962 20.1046 10.895 21 11.9996 21C13.1042 21 13.9996 20.1046 13.9996 19V18.1765M9.99962 18.1765H13.9996M13.9996 18.1765H18.5552C19.4331 18.1765 19.8589 17.1028 19.2196 16.5012C18.4411 15.7684 17.9996 14.7467 17.9996 13.6776V11C17.9996 7.68629 15.3133 5 11.9996 5M11.9996 5V3.5" stroke="white" stroke-width="1.5" stroke-linecap="round" stroke-linejoin="round"/>
<circle cx="16.5" cy="6.5" r="2.5" fill="#E11900"/>
</svg>
