<svg width="22" height="22" viewBox="0 0 22 22" fill="none" xmlns="http://www.w3.org/2000/svg">
<path d="M7.66667 20.2475H5.44444C2.98984 20.2475 1 18.2576 1 15.803V8.81147C1 7.25732 1.81179 5.81608 3.14088 5.01057L8.69643 1.64357C10.1123 0.785478 11.8877 0.785478 13.3036 1.64357L18.8591 5.01057C20.1882 5.81608 21 7.25732 21 8.81147V15.803C21 18.2576 19.0101 20.2475 16.5556 20.2475H14.3333M7.66667 20.2475V15.803C7.66667 13.962 9.159 12.4697 11 12.4697C12.841 12.4697 14.3333 13.962 14.3333 15.803V20.2475M7.66667 20.2475H14.3333" stroke="white" stroke-width="2" stroke-linecap="round" stroke-linejoin="round"/>
</svg>
