<svg width="22" height="17" viewBox="0 0 22 17" fill="none" xmlns="http://www.w3.org/2000/svg">
<g id="Logo">
<path id="Subtract" fill-rule="evenodd" clip-rule="evenodd" d="M4.13891 0.320014L7.37445 6.1075C7.613 6.53419 8.22699 6.53418 8.46553 6.10748L11.7009 0.320026C11.8113 0.122421 12.02 0 12.2464 0H15.215C15.5602 0 15.84 0.279822 15.84 0.625V16.375C15.84 16.7202 15.5602 17 15.215 17H13.165C12.8199 17 12.54 16.7202 12.54 16.375V5.66667L8.47863 13.7616C8.24802 14.2212 7.59198 14.2212 7.36137 13.7616L3.3 5.66677V5.66667L0.136738 0.234802C0.25127 0.0916727 0.427429 0 0.625 0H3.59337C3.81975 0 4.02844 0.122416 4.13891 0.320014ZM0 2.125L3.29995 7.79158V9.91658L0 4.25V2.125ZM0 6.375L3.29995 12.0416V14.1666L0 8.5V6.375ZM3.29995 16.2916L0 10.625V16.375C0 16.7202 0.279822 17 0.625 17H2.67495C3.02013 17 3.29995 16.7202 3.29995 16.375V16.2916Z" fill="white"/>
<path id="Ellipse 122" d="M21.625 2.125C21.625 3.1169 20.8819 3.875 20.02 3.875C19.1581 3.875 18.415 3.1169 18.415 2.125C18.415 1.1331 19.1581 0.375 20.02 0.375C20.8819 0.375 21.625 1.1331 21.625 2.125Z" stroke="white" stroke-width="0.75"/>
</g>
</svg>
